<svg xmlns="http://www.w3.org/2000/svg" xmlns:xlink="http://www.w3.org/1999/xlink" width="60" zoomAndPan="magnify" viewBox="0 0 45 44.999999" height="60" preserveAspectRatio="xMidYMid meet" version="1.2"><defs><clipPath id="d240b45c86"><path d="M 0.261719 0.261719 L 44.738281 0.261719 L 44.738281 44.738281 L 0.261719 44.738281 Z M 0.261719 0.261719 "/></clipPath><clipPath id="473bbef754"><path d="M 22.5 0.261719 C 10.21875 0.261719 0.261719 10.21875 0.261719 22.5 C 0.261719 34.78125 10.21875 44.738281 22.5 44.738281 C 34.78125 44.738281 44.738281 34.78125 44.738281 22.5 C 44.738281 10.21875 34.78125 0.261719 22.5 0.261719 Z M 22.5 0.261719 "/></clipPath><clipPath id="2d6cf31d63"><path d="M 1.238281 1.238281 L 43.988281 1.238281 L 43.988281 43.988281 L 1.238281 43.988281 Z M 1.238281 1.238281 "/></clipPath></defs><g id="92fa7e36d7"><g clip-rule="nonzero" clip-path="url(#d240b45c86)"><g clip-rule="nonzero" clip-path="url(#473bbef754)"><path style=" stroke:none;fill-rule:nonzero;fill:#ffffff;fill-opacity:1;" d="M 0.261719 0.261719 L 44.738281 0.261719 L 44.738281 44.738281 L 0.261719 44.738281 Z M 0.261719 0.261719 "/></g></g><path style=" stroke:none;fill-rule:nonzero;fill:#f70094;fill-opacity:1;" d="M 13.800781 16.328125 L 13.800781 23.558594 C 13.800781 24.582031 14.035156 25.546875 14.507812 26.457031 C 14.980469 27.363281 15.636719 28.109375 16.476562 28.699219 L 22.496094 32.910156 L 28.515625 28.695312 C 29.351562 28.109375 30.007812 27.363281 30.480469 26.453125 C 30.953125 25.546875 31.191406 24.582031 31.191406 23.558594 L 31.191406 16.332031 L 22.496094 11.980469 Z M 27.726562 19.597656 L 22.210938 25.109375 C 22.023438 25.300781 21.796875 25.394531 21.527344 25.394531 C 21.261719 25.394531 21.035156 25.300781 20.847656 25.109375 L 17.265625 21.527344 L 18.628906 20.164062 L 21.527344 23.0625 L 26.359375 18.230469 Z M 27.726562 19.597656 "/><g clip-rule="nonzero" clip-path="url(#2d6cf31d63)"><path style=" stroke:none;fill-rule:nonzero;fill:#f70094;fill-opacity:1;" d="M 22.496094 1.238281 C 21.800781 1.238281 21.105469 1.273438 20.410156 1.339844 C 19.71875 1.40625 19.03125 1.511719 18.347656 1.644531 C 17.664062 1.78125 16.992188 1.949219 16.324219 2.152344 C 15.660156 2.355469 15.003906 2.589844 14.359375 2.855469 C 13.71875 3.121094 13.089844 3.417969 12.472656 3.746094 C 11.859375 4.074219 11.265625 4.433594 10.683594 4.820312 C 10.105469 5.207031 9.546875 5.621094 9.007812 6.0625 C 8.472656 6.503906 7.957031 6.972656 7.464844 7.464844 C 6.972656 7.957031 6.503906 8.472656 6.0625 9.007812 C 5.621094 9.546875 5.207031 10.105469 4.820312 10.683594 C 4.433594 11.265625 4.074219 11.859375 3.746094 12.472656 C 3.417969 13.089844 3.121094 13.71875 2.855469 14.359375 C 2.589844 15.003906 2.355469 15.660156 2.152344 16.324219 C 1.949219 16.992188 1.78125 17.664062 1.644531 18.347656 C 1.511719 19.03125 1.40625 19.71875 1.339844 20.410156 C 1.273438 21.105469 1.238281 21.800781 1.238281 22.496094 C 1.238281 23.191406 1.273438 23.886719 1.339844 24.578125 C 1.40625 25.273438 1.511719 25.960938 1.644531 26.640625 C 1.78125 27.324219 1.949219 28 2.152344 28.667969 C 2.355469 29.332031 2.589844 29.988281 2.855469 30.628906 C 3.121094 31.273438 3.417969 31.902344 3.746094 32.515625 C 4.074219 33.128906 4.433594 33.726562 4.820312 34.304688 C 5.207031 34.882812 5.621094 35.441406 6.0625 35.980469 C 6.503906 36.519531 6.972656 37.035156 7.464844 37.527344 C 7.957031 38.019531 8.472656 38.484375 9.007812 38.929688 C 9.546875 39.371094 10.105469 39.785156 10.683594 40.171875 C 11.265625 40.558594 11.859375 40.914062 12.472656 41.242188 C 13.089844 41.570312 13.71875 41.867188 14.359375 42.136719 C 15.003906 42.402344 15.660156 42.636719 16.324219 42.835938 C 16.992188 43.039062 17.664062 43.207031 18.347656 43.34375 C 19.03125 43.480469 19.71875 43.582031 20.410156 43.652344 C 21.105469 43.71875 21.800781 43.753906 22.496094 43.753906 C 23.191406 43.753906 23.886719 43.71875 24.578125 43.652344 C 25.273438 43.582031 25.960938 43.480469 26.640625 43.34375 C 27.324219 43.207031 28 43.039062 28.667969 42.835938 C 29.332031 42.636719 29.988281 42.402344 30.628906 42.136719 C 31.273438 41.867188 31.902344 41.570312 32.515625 41.242188 C 33.128906 40.914062 33.726562 40.558594 34.304688 40.171875 C 34.882812 39.785156 35.441406 39.371094 35.980469 38.929688 C 36.519531 38.484375 37.035156 38.019531 37.527344 37.527344 C 38.019531 37.035156 38.484375 36.519531 38.929688 35.980469 C 39.371094 35.441406 39.785156 34.882812 40.171875 34.304688 C 40.558594 33.726562 40.914062 33.128906 41.242188 32.515625 C 41.570312 31.902344 41.867188 31.273438 42.136719 30.628906 C 42.402344 29.988281 42.636719 29.332031 42.835938 28.667969 C 43.039062 28 43.207031 27.324219 43.34375 26.640625 C 43.480469 25.960938 43.582031 25.273438 43.652344 24.578125 C 43.71875 23.886719 43.753906 23.191406 43.753906 22.496094 C 43.753906 21.800781 43.71875 21.105469 43.648438 20.414062 C 43.578125 19.71875 43.476562 19.03125 43.339844 18.351562 C 43.203125 17.667969 43.035156 16.992188 42.832031 16.328125 C 42.628906 15.660156 42.394531 15.007812 42.128906 14.363281 C 41.863281 13.722656 41.5625 13.09375 41.234375 12.480469 C 40.90625 11.867188 40.550781 11.269531 40.164062 10.691406 C 39.777344 10.113281 39.363281 9.554688 38.921875 9.015625 C 38.480469 8.476562 38.011719 7.964844 37.519531 7.472656 C 37.027344 6.980469 36.511719 6.511719 35.976562 6.070312 C 35.4375 5.628906 34.878906 5.214844 34.300781 4.828125 C 33.722656 4.441406 33.125 4.082031 32.511719 3.753906 C 31.898438 3.425781 31.269531 3.128906 30.625 2.863281 C 29.984375 2.59375 29.328125 2.359375 28.664062 2.160156 C 27.996094 1.957031 27.324219 1.785156 26.640625 1.648438 C 25.957031 1.511719 25.269531 1.410156 24.578125 1.34375 C 23.886719 1.273438 23.191406 1.238281 22.496094 1.238281 Z M 33.125 23.558594 C 33.125 24.898438 32.8125 26.160156 32.195312 27.347656 C 31.578125 28.535156 30.71875 29.515625 29.621094 30.28125 L 23.050781 34.882812 C 22.886719 35 22.699219 35.058594 22.5 35.058594 C 22.296875 35.058594 22.109375 35 21.945312 34.882812 L 15.375 30.28125 C 14.277344 29.515625 13.417969 28.539062 12.796875 27.347656 C 12.179688 26.160156 11.867188 24.898438 11.867188 23.558594 L 11.867188 15.730469 C 11.867188 15.332031 12.042969 15.042969 12.402344 14.867188 L 22.0625 10.035156 C 22.351562 9.890625 22.640625 9.890625 22.925781 10.035156 L 32.589844 14.867188 C 32.945312 15.042969 33.125 15.332031 33.125 15.730469 Z M 33.125 23.558594 "/></g></g></svg>