<svg xmlns="http://www.w3.org/2000/svg" xmlns:xlink="http://www.w3.org/1999/xlink" width="60" zoomAndPan="magnify" viewBox="0 0 45 44.999999" height="60" preserveAspectRatio="xMidYMid meet" version="1.2"><defs><clipPath id="8d22a4a4b3"><path d="M 0.261719 0.261719 L 44.738281 0.261719 L 44.738281 44.738281 L 0.261719 44.738281 Z M 0.261719 0.261719 "/></clipPath><clipPath id="8da7de6094"><path d="M 22.5 0.261719 C 10.21875 0.261719 0.261719 10.21875 0.261719 22.5 C 0.261719 34.78125 10.21875 44.738281 22.5 44.738281 C 34.78125 44.738281 44.738281 34.78125 44.738281 22.5 C 44.738281 10.21875 34.78125 0.261719 22.5 0.261719 Z M 22.5 0.261719 "/></clipPath><clipPath id="16bfb5f3a0"><path d="M 1.800781 1.800781 L 43.050781 1.800781 L 43.050781 43.050781 L 1.800781 43.050781 Z M 1.800781 1.800781 "/></clipPath></defs><g id="0f6b4aebe1"><g clip-rule="nonzero" clip-path="url(#8d22a4a4b3)"><g clip-rule="nonzero" clip-path="url(#8da7de6094)"><path style=" stroke:none;fill-rule:nonzero;fill:#ffffff;fill-opacity:1;" d="M 0.261719 0.261719 L 44.738281 0.261719 L 44.738281 44.738281 L 0.261719 44.738281 Z M 0.261719 0.261719 "/></g></g><g clip-rule="nonzero" clip-path="url(#16bfb5f3a0)"><path style=" stroke:none;fill-rule:nonzero;fill:#f70094;fill-opacity:1;" d="M 34.707031 14.683594 L 34.148438 15.246094 L 29.613281 10.710938 L 30.175781 10.148438 C 30.738281 9.585938 31.652344 9.585938 32.214844 10.148438 L 34.707031 12.644531 C 35.269531 13.207031 35.269531 14.121094 34.707031 14.683594 Z M 17.394531 31.996094 L 12.859375 27.460938 L 29.15625 11.167969 L 33.6875 15.703125 Z M 9.878906 34.976562 L 12.230469 28.09375 L 16.765625 32.625 Z M 22.429688 1.800781 C 11.035156 1.800781 1.800781 11.035156 1.800781 22.429688 C 1.800781 33.820312 11.035156 43.054688 22.429688 43.054688 C 33.820312 43.054688 43.054688 33.820312 43.054688 22.429688 C 43.054688 11.035156 33.820312 1.800781 22.429688 1.800781 "/></g></g></svg>