<svg xmlns="http://www.w3.org/2000/svg" xmlns:xlink="http://www.w3.org/1999/xlink" width="60" zoomAndPan="magnify" viewBox="0 0 45 44.999999" height="60" preserveAspectRatio="xMidYMid meet" version="1.2"><defs><clipPath id="c0fd220764"><path d="M 0.261719 0.261719 L 44.738281 0.261719 L 44.738281 44.738281 L 0.261719 44.738281 Z M 0.261719 0.261719 "/></clipPath><clipPath id="1e3a51613a"><path d="M 22.5 0.261719 C 10.21875 0.261719 0.261719 10.21875 0.261719 22.5 C 0.261719 34.78125 10.21875 44.738281 22.5 44.738281 C 34.78125 44.738281 44.738281 34.78125 44.738281 22.5 C 44.738281 10.21875 34.78125 0.261719 22.5 0.261719 Z M 22.5 0.261719 "/></clipPath><clipPath id="91c92cb895"><path d="M 1.574219 1.574219 L 43.574219 1.574219 L 43.574219 43.574219 L 1.574219 43.574219 Z M 1.574219 1.574219 "/></clipPath></defs><g id="f808a18382"><g clip-rule="nonzero" clip-path="url(#c0fd220764)"><g clip-rule="nonzero" clip-path="url(#1e3a51613a)"><path style=" stroke:none;fill-rule:nonzero;fill:#ffffff;fill-opacity:1;" d="M 0.261719 0.261719 L 44.738281 0.261719 L 44.738281 44.738281 L 0.261719 44.738281 Z M 0.261719 0.261719 "/></g></g><g clip-rule="nonzero" clip-path="url(#91c92cb895)"><path style=" stroke:none;fill-rule:nonzero;fill:#f70094;fill-opacity:1;" d="M 22.5 1.574219 C 21.8125 1.574219 21.128906 1.609375 20.449219 1.675781 C 19.765625 1.742188 19.089844 1.84375 18.417969 1.976562 C 17.746094 2.109375 17.082031 2.277344 16.425781 2.476562 C 15.769531 2.675781 15.125 2.90625 14.492188 3.167969 C 13.859375 3.429688 13.238281 3.722656 12.636719 4.046875 C 12.03125 4.367188 11.445312 4.71875 10.875 5.101562 C 10.304688 5.480469 9.753906 5.890625 9.226562 6.324219 C 8.695312 6.757812 8.1875 7.21875 7.703125 7.703125 C 7.21875 8.1875 6.757812 8.695312 6.324219 9.226562 C 5.890625 9.753906 5.480469 10.304688 5.101562 10.875 C 4.71875 11.445312 4.367188 12.03125 4.046875 12.636719 C 3.722656 13.238281 3.429688 13.859375 3.167969 14.492188 C 2.90625 15.125 2.675781 15.769531 2.476562 16.425781 C 2.277344 17.082031 2.109375 17.746094 1.976562 18.417969 C 1.84375 19.089844 1.742188 19.765625 1.675781 20.449219 C 1.609375 21.128906 1.574219 21.8125 1.574219 22.5 C 1.574219 23.183594 1.609375 23.867188 1.675781 24.550781 C 1.742188 25.230469 1.84375 25.910156 1.976562 26.582031 C 2.109375 27.253906 2.277344 27.917969 2.476562 28.574219 C 2.675781 29.226562 2.90625 29.871094 3.167969 30.507812 C 3.429688 31.140625 3.722656 31.757812 4.046875 32.363281 C 4.367188 32.964844 4.71875 33.554688 5.101562 34.125 C 5.480469 34.691406 5.890625 35.242188 6.324219 35.773438 C 6.757812 36.300781 7.21875 36.808594 7.703125 37.292969 C 8.1875 37.777344 8.695312 38.238281 9.226562 38.671875 C 9.753906 39.109375 10.304688 39.515625 10.875 39.894531 C 11.445312 40.277344 12.03125 40.628906 12.636719 40.953125 C 13.238281 41.273438 13.859375 41.566406 14.492188 41.828125 C 15.125 42.09375 15.769531 42.324219 16.425781 42.523438 C 17.082031 42.71875 17.746094 42.886719 18.417969 43.019531 C 19.089844 43.152344 19.765625 43.253906 20.449219 43.320312 C 21.128906 43.390625 21.8125 43.421875 22.5 43.421875 C 23.183594 43.421875 23.867188 43.390625 24.550781 43.320312 C 25.230469 43.253906 25.910156 43.152344 26.582031 43.019531 C 27.253906 42.886719 27.917969 42.71875 28.574219 42.523438 C 29.226562 42.324219 29.871094 42.09375 30.507812 41.828125 C 31.140625 41.566406 31.757812 41.273438 32.363281 40.953125 C 32.964844 40.628906 33.554688 40.277344 34.125 39.894531 C 34.691406 39.515625 35.242188 39.109375 35.773438 38.671875 C 36.300781 38.238281 36.808594 37.777344 37.292969 37.292969 C 37.777344 36.808594 38.238281 36.300781 38.671875 35.773438 C 39.109375 35.242188 39.515625 34.691406 39.894531 34.125 C 40.277344 33.554688 40.628906 32.964844 40.953125 32.363281 C 41.273438 31.757812 41.566406 31.140625 41.828125 30.507812 C 42.09375 29.871094 42.324219 29.226562 42.523438 28.574219 C 42.71875 27.917969 42.886719 27.253906 43.019531 26.582031 C 43.152344 25.910156 43.253906 25.230469 43.320312 24.550781 C 43.390625 23.867188 43.421875 23.183594 43.421875 22.5 C 43.421875 21.8125 43.386719 21.128906 43.320312 20.449219 C 43.25 19.765625 43.152344 19.089844 43.015625 18.417969 C 42.882812 17.746094 42.714844 17.082031 42.515625 16.425781 C 42.316406 15.773438 42.085938 15.128906 41.824219 14.496094 C 41.5625 13.863281 41.269531 13.242188 40.945312 12.640625 C 40.621094 12.035156 40.269531 11.449219 39.890625 10.878906 C 39.507812 10.308594 39.101562 9.761719 38.664062 9.230469 C 38.230469 8.703125 37.773438 8.195312 37.289062 7.710938 C 36.804688 7.226562 36.296875 6.765625 35.765625 6.332031 C 35.238281 5.898438 34.6875 5.488281 34.117188 5.109375 C 33.546875 4.726562 32.960938 4.375 32.359375 4.050781 C 31.753906 3.730469 31.136719 3.4375 30.503906 3.175781 C 29.871094 2.910156 29.226562 2.679688 28.570312 2.480469 C 27.914062 2.28125 27.25 2.113281 26.578125 1.980469 C 25.90625 1.847656 25.230469 1.746094 24.550781 1.679688 C 23.867188 1.609375 23.183594 1.574219 22.5 1.574219 Z M 27.402344 32.492188 C 27.226562 32.707031 27 32.816406 26.722656 32.816406 L 18.277344 32.816406 C 18.144531 32.816406 18.019531 32.789062 17.898438 32.730469 C 17.78125 32.675781 17.679688 32.59375 17.597656 32.492188 C 17.515625 32.390625 17.457031 32.273438 17.425781 32.148438 C 17.394531 32.019531 17.390625 31.890625 17.417969 31.761719 L 19.601562 21.316406 C 19.3125 21.113281 19.046875 20.882812 18.804688 20.621094 C 18.5625 20.359375 18.351562 20.078125 18.167969 19.773438 C 17.988281 19.46875 17.839844 19.148438 17.726562 18.808594 C 17.613281 18.472656 17.535156 18.128906 17.496094 17.777344 C 17.453125 17.421875 17.449219 17.070312 17.484375 16.71875 C 17.515625 16.363281 17.589844 16.015625 17.695312 15.679688 C 17.800781 15.339844 17.941406 15.015625 18.117188 14.707031 C 18.292969 14.398438 18.5 14.113281 18.738281 13.847656 C 18.972656 13.582031 19.234375 13.34375 19.519531 13.132812 C 19.808594 12.925781 20.113281 12.746094 20.4375 12.601562 C 20.761719 12.457031 21.097656 12.347656 21.441406 12.273438 C 21.789062 12.199219 22.140625 12.160156 22.496094 12.160156 C 22.851562 12.160156 23.203125 12.199219 23.550781 12.273438 C 23.898438 12.347656 24.234375 12.457031 24.558594 12.601562 C 24.882812 12.746094 25.1875 12.925781 25.472656 13.132812 C 25.761719 13.34375 26.019531 13.582031 26.257812 13.847656 C 26.492188 14.113281 26.699219 14.398438 26.875 14.707031 C 27.050781 15.015625 27.191406 15.339844 27.300781 15.679688 C 27.40625 16.015625 27.476562 16.363281 27.511719 16.71875 C 27.542969 17.070312 27.539062 17.421875 27.5 17.777344 C 27.457031 18.128906 27.382812 18.472656 27.269531 18.808594 C 27.152344 19.148438 27.007812 19.46875 26.824219 19.773438 C 26.644531 20.078125 26.429688 20.359375 26.191406 20.621094 C 25.949219 20.882812 25.683594 21.113281 25.390625 21.316406 L 27.574219 31.761719 C 27.632812 32.035156 27.574219 32.277344 27.402344 32.492188 Z M 27.402344 32.492188 "/></g></g></svg>