<svg xmlns="http://www.w3.org/2000/svg" xmlns:xlink="http://www.w3.org/1999/xlink" width="60" zoomAndPan="magnify" viewBox="0 0 45 44.999999" height="60" preserveAspectRatio="xMidYMid meet" version="1.2"><defs><clipPath id="b393ce26fe"><path d="M 0.261719 0.261719 L 44.738281 0.261719 L 44.738281 44.738281 L 0.261719 44.738281 Z M 0.261719 0.261719 "/></clipPath><clipPath id="e9b59e96bc"><path d="M 22.5 0.261719 C 10.21875 0.261719 0.261719 10.21875 0.261719 22.5 C 0.261719 34.78125 10.21875 44.738281 22.5 44.738281 C 34.78125 44.738281 44.738281 34.78125 44.738281 22.5 C 44.738281 10.21875 34.78125 0.261719 22.5 0.261719 Z M 22.5 0.261719 "/></clipPath><clipPath id="3944583c0f"><path d="M 1.761719 1.761719 L 43.011719 1.761719 L 43.011719 43.011719 L 1.761719 43.011719 Z M 1.761719 1.761719 "/></clipPath></defs><g id="8541614d3c"><g clip-rule="nonzero" clip-path="url(#b393ce26fe)"><g clip-rule="nonzero" clip-path="url(#e9b59e96bc)"><path style=" stroke:none;fill-rule:nonzero;fill:#ffffff;fill-opacity:1;" d="M 0.261719 0.261719 L 44.738281 0.261719 L 44.738281 44.738281 L 0.261719 44.738281 Z M 0.261719 0.261719 "/></g></g><g clip-rule="nonzero" clip-path="url(#3944583c0f)"><path style=" stroke:none;fill-rule:nonzero;fill:#f70094;fill-opacity:1;" d="M 22.390625 1.761719 C 10.996094 1.761719 1.761719 10.996094 1.761719 22.390625 C 1.761719 33.78125 10.996094 43.015625 22.390625 43.015625 C 33.78125 43.015625 43.015625 33.78125 43.015625 22.390625 C 43.015625 10.996094 33.78125 1.761719 22.390625 1.761719 Z M 23.992188 29.816406 L 23.992188 23.269531 L 23.582031 23.382812 C 18.675781 24.898438 14.285156 28.097656 11.546875 32.484375 C 9.191406 27.144531 12.238281 20.632812 18.351562 17.941406 C 19.78125 17.3125 21.257812 16.945312 22.703125 16.828125 L 23.992188 16.792969 L 23.992188 10.105469 L 36.113281 19.960938 Z M 23.992188 29.816406 "/></g></g></svg>