<svg xmlns="http://www.w3.org/2000/svg" xmlns:xlink="http://www.w3.org/1999/xlink" width="600" zoomAndPan="magnify" viewBox="0 0 450 225" height="300" preserveAspectRatio="xMidYMid meet" version="1.2"><defs><clipPath id="f6e973c7c8"><path d="M 3 87 L 103 87 L 103 157 L 3 157 Z M 3 87 "/></clipPath><clipPath id="28be679e6a"><path d="M -32.953125 85.578125 L 72.113281 27.601562 L 132.625 137.265625 L 27.558594 195.238281 Z M -32.953125 85.578125 "/></clipPath><clipPath id="bd68b6b219"><path d="M -32.953125 85.578125 L 72.113281 27.601562 L 132.625 137.265625 L 27.558594 195.238281 Z M -32.953125 85.578125 "/></clipPath><clipPath id="ce3f347bbc"><path d="M 7 114 L 97 114 L 97 153 L 7 153 Z M 7 114 "/></clipPath><clipPath id="5e06b72913"><path d="M -32.953125 85.578125 L 72.113281 27.601562 L 132.625 137.265625 L 27.558594 195.238281 Z M -32.953125 85.578125 "/></clipPath><clipPath id="4dc8411bb4"><path d="M -32.953125 85.578125 L 72.113281 27.601562 L 132.625 137.265625 L 27.558594 195.238281 Z M -32.953125 85.578125 "/></clipPath><clipPath id="e2ad20b5b7"><path d="M 6 110 L 99 110 L 99 155 L 6 155 Z M 6 110 "/></clipPath><clipPath id="e93f88dd12"><path d="M -32.953125 85.578125 L 72.113281 27.601562 L 132.625 137.265625 L 27.558594 195.238281 Z M -32.953125 85.578125 "/></clipPath><clipPath id="831cd0cab5"><path d="M -32.953125 85.578125 L 72.113281 27.601562 L 132.625 137.265625 L 27.558594 195.238281 Z M -32.953125 85.578125 "/></clipPath><clipPath id="a665015687"><path d="M 59 84 L 98 84 L 98 117 L 59 117 Z M 59 84 "/></clipPath><clipPath id="8e5351c306"><path d="M -32.953125 85.578125 L 72.113281 27.601562 L 132.625 137.265625 L 27.558594 195.238281 Z M -32.953125 85.578125 "/></clipPath><clipPath id="ecc5812a34"><path d="M -32.953125 85.578125 L 72.113281 27.601562 L 132.625 137.265625 L 27.558594 195.238281 Z M -32.953125 85.578125 "/></clipPath><clipPath id="a200e7bad4"><path d="M 6 87 L 44 87 L 44 117 L 6 117 Z M 6 87 "/></clipPath><clipPath id="3fe72081ad"><path d="M -32.953125 85.578125 L 72.113281 27.601562 L 132.625 137.265625 L 27.558594 195.238281 Z M -32.953125 85.578125 "/></clipPath><clipPath id="4c180b9bed"><path d="M -32.953125 85.578125 L 72.113281 27.601562 L 132.625 137.265625 L 27.558594 195.238281 Z M -32.953125 85.578125 "/></clipPath><clipPath id="e2e4908132"><path d="M 4 53 L 101 53 L 101 153 L 4 153 Z M 4 53 "/></clipPath><clipPath id="241b4f90da"><path d="M -32.953125 85.578125 L 72.113281 27.601562 L 132.625 137.265625 L 27.558594 195.238281 Z M -32.953125 85.578125 "/></clipPath><clipPath id="071e6b11eb"><path d="M -32.953125 85.578125 L 72.113281 27.601562 L 132.625 137.265625 L 27.558594 195.238281 Z M -32.953125 85.578125 "/></clipPath><clipPath id="54b8913556"><path d="M 4 49 L 101 49 L 101 88 L 4 88 Z M 4 49 "/></clipPath><clipPath id="c0364d6a09"><path d="M -32.953125 85.578125 L 72.113281 27.601562 L 132.625 137.265625 L 27.558594 195.238281 Z M -32.953125 85.578125 "/></clipPath><clipPath id="9a76f91a30"><path d="M -32.953125 85.578125 L 72.113281 27.601562 L 132.625 137.265625 L 27.558594 195.238281 Z M -32.953125 85.578125 "/></clipPath><clipPath id="78c1fe5d90"><path d="M 17 52 L 93 52 L 93 116 L 17 116 Z M 17 52 "/></clipPath><clipPath id="e96079fa10"><path d="M -32.953125 85.578125 L 72.113281 27.601562 L 132.625 137.265625 L 27.558594 195.238281 Z M -32.953125 85.578125 "/></clipPath><clipPath id="57129fcb43"><path d="M -32.953125 85.578125 L 72.113281 27.601562 L 132.625 137.265625 L 27.558594 195.238281 Z M -32.953125 85.578125 "/></clipPath><clipPath id="a15838529d"><path d="M 16 51 L 59 51 L 59 105 L 16 105 Z M 16 51 "/></clipPath><clipPath id="7df4c7a022"><path d="M -32.953125 85.578125 L 72.113281 27.601562 L 132.625 137.265625 L 27.558594 195.238281 Z M -32.953125 85.578125 "/></clipPath><clipPath id="fcf630f910"><path d="M -32.953125 85.578125 L 72.113281 27.601562 L 132.625 137.265625 L 27.558594 195.238281 Z M -32.953125 85.578125 "/></clipPath><clipPath id="d38fc0cc80"><path d="M 57 61 L 94 61 L 94 93 L 57 93 Z M 57 61 "/></clipPath><clipPath id="6175c7f5f1"><path d="M -32.953125 85.578125 L 72.113281 27.601562 L 132.625 137.265625 L 27.558594 195.238281 Z M -32.953125 85.578125 "/></clipPath><clipPath id="0f9e87fc81"><path d="M -32.953125 85.578125 L 72.113281 27.601562 L 132.625 137.265625 L 27.558594 195.238281 Z M -32.953125 85.578125 "/></clipPath><clipPath id="25a68ec97a"><path d="M 77 68 L 85 68 L 85 78 L 77 78 Z M 77 68 "/></clipPath><clipPath id="1cde0fa1a4"><path d="M -32.953125 85.578125 L 72.113281 27.601562 L 132.625 137.265625 L 27.558594 195.238281 Z M -32.953125 85.578125 "/></clipPath><clipPath id="7b52b864da"><path d="M -32.953125 85.578125 L 72.113281 27.601562 L 132.625 137.265625 L 27.558594 195.238281 Z M -32.953125 85.578125 "/></clipPath><clipPath id="a005cde422"><path d="M 23 60 L 34 60 L 34 92 L 23 92 Z M 23 60 "/></clipPath><clipPath id="125e71e097"><path d="M -32.953125 85.578125 L 72.113281 27.601562 L 132.625 137.265625 L 27.558594 195.238281 Z M -32.953125 85.578125 "/></clipPath><clipPath id="0f1c8a11cd"><path d="M -32.953125 85.578125 L 72.113281 27.601562 L 132.625 137.265625 L 27.558594 195.238281 Z M -32.953125 85.578125 "/></clipPath></defs><g id="220837c313"><g style="fill:#ff00a0;fill-opacity:1;"><g transform="translate(355.212501, 151.769099)"><path style="stroke:none" d="M 0.96875 -52.8125 L 0.96875 -63.078125 L 10.484375 -63.078125 C 10.617188 -67.078125 11.203125 -70.609375 12.234375 -73.671875 C 13.273438 -76.734375 15.0625 -79.132812 17.59375 -80.875 C 20.125 -82.625 23.703125 -83.5 28.328125 -83.5 C 30.398438 -83.5 32.304688 -83.335938 34.046875 -83.015625 C 35.796875 -82.703125 37.382812 -82.332031 38.8125 -81.90625 L 38.0625 -72.390625 C 36.5625 -72.671875 35.222656 -72.878906 34.046875 -73.015625 C 32.878906 -73.160156 31.582031 -73.234375 30.15625 -73.234375 C 26.800781 -73.234375 24.625 -72.359375 23.625 -70.609375 C 22.632812 -68.867188 22.101562 -66.359375 22.03125 -63.078125 L 37.640625 -63.078125 L 37.640625 -52.8125 L 22.03125 -52.8125 L 22.03125 0 L 10.484375 0 L 10.484375 -52.8125 Z M 0.96875 -52.8125 "/></g></g><g style="fill:#ff00a0;fill-opacity:1;"><g transform="translate(392.417904, 151.769099)"><path style="stroke:none" d="M 11.546875 12.078125 C 14.753906 10.585938 17.460938 8.878906 19.671875 6.953125 C 21.878906 5.023438 23.445312 2.847656 24.375 0.421875 L 25.125 -1.8125 L 20.3125 -1.8125 L 1.0625 -63.078125 L 13.15625 -63.078125 L 27.375 -14.109375 L 27.796875 -11.765625 L 28.015625 -11.765625 L 28.4375 -14.109375 L 42.453125 -63.078125 L 54.53125 -63.078125 L 35.390625 -1.171875 C 33.816406 4.023438 31.351562 8.457031 28 12.125 C 24.65625 15.800781 20.273438 18.457031 14.859375 20.09375 Z M 11.546875 12.078125 "/></g></g><g style="fill:#ffffff;fill-opacity:1;"><g transform="translate(103.892308, 151.769099)"><path style="stroke:none" d="M 52.609375 0 L 52.609375 -34.96875 L 21.0625 -34.96875 L 21.0625 0 L 8.875 0 L 8.875 -79.4375 L 21.0625 -79.4375 L 21.0625 -45.4375 L 52.609375 -45.4375 L 52.609375 -79.4375 L 64.796875 -79.4375 L 64.796875 0 Z M 52.609375 0 "/></g></g><g style="fill:#ffffff;fill-opacity:1;"><g transform="translate(170.924959, 151.769099)"><path style="stroke:none" d="M 29.296875 1.5 C 20.816406 1.5 14.578125 -1.296875 10.578125 -6.890625 C 6.585938 -12.492188 4.59375 -20.140625 4.59375 -29.828125 L 4.59375 -33.46875 C 4.59375 -43.019531 6.640625 -50.59375 10.734375 -56.1875 C 14.835938 -61.78125 21.238281 -64.578125 29.9375 -64.578125 C 38.351562 -64.578125 44.570312 -61.9375 48.59375 -56.65625 C 52.625 -51.382812 54.640625 -43.546875 54.640625 -33.140625 L 54.640625 -28.015625 L 16.140625 -28.015625 C 16.285156 -21.878906 17.425781 -17.15625 19.5625 -13.84375 C 21.707031 -10.53125 25.0625 -8.875 29.625 -8.875 C 33.96875 -8.875 37.191406 -9.925781 39.296875 -12.03125 C 41.398438 -14.132812 42.628906 -17.285156 42.984375 -21.484375 L 54.421875 -21.484375 C 53.921875 -14.429688 51.585938 -8.835938 47.421875 -4.703125 C 43.253906 -0.566406 37.210938 1.5 29.296875 1.5 Z M 16.25 -37.421875 L 42.984375 -37.421875 C 42.835938 -43.117188 41.710938 -47.335938 39.609375 -50.078125 C 37.503906 -52.828125 34.207031 -54.203125 29.71875 -54.203125 C 25.582031 -54.203125 22.390625 -52.863281 20.140625 -50.1875 C 17.898438 -47.519531 16.601562 -43.265625 16.25 -37.421875 Z M 16.25 -37.421875 "/></g></g><g style="fill:#ffffff;fill-opacity:1;"><g transform="translate(223.203744, 151.769099)"><path style="stroke:none" d="M 25.125 1.5 C 20.28125 1.5 16.34375 0.535156 13.3125 -1.390625 C 10.28125 -3.316406 8.085938 -5.8125 6.734375 -8.875 C 5.378906 -11.9375 4.703125 -15.21875 4.703125 -18.71875 C 4.703125 -22.132812 5.429688 -25.320312 6.890625 -28.28125 C 8.359375 -31.238281 10.726562 -33.625 14 -35.4375 C 17.28125 -37.257812 21.628906 -38.171875 27.046875 -38.171875 C 30.253906 -38.171875 33.25 -37.847656 36.03125 -37.203125 C 38.8125 -36.566406 41.164062 -35.859375 43.09375 -35.078125 L 43.09375 -40.515625 C 43.09375 -42.796875 42.734375 -45.023438 42.015625 -47.203125 C 41.304688 -49.378906 40.023438 -51.195312 38.171875 -52.65625 C 36.316406 -54.113281 33.609375 -54.84375 30.046875 -54.84375 C 27.046875 -54.84375 24.65625 -54.21875 22.875 -52.96875 C 21.09375 -51.726562 19.8125 -50.144531 19.03125 -48.21875 C 18.25 -46.289062 17.820312 -44.296875 17.75 -42.234375 L 6.515625 -42.234375 C 6.585938 -44.585938 6.976562 -47.046875 7.6875 -49.609375 C 8.40625 -52.179688 9.632812 -54.601562 11.375 -56.875 C 13.125 -59.15625 15.515625 -61.007812 18.546875 -62.4375 C 21.578125 -63.863281 25.445312 -64.578125 30.15625 -64.578125 C 35 -64.578125 39.003906 -63.878906 42.171875 -62.484375 C 45.347656 -61.097656 47.828125 -59.226562 49.609375 -56.875 C 51.390625 -54.53125 52.65625 -51.859375 53.40625 -48.859375 C 54.15625 -45.867188 54.53125 -42.769531 54.53125 -39.5625 L 54.53125 0 L 43.09375 0 L 43.09375 -6.3125 L 43.625 -11.4375 L 43.40625 -11.4375 C 41.976562 -7.664062 39.785156 -4.566406 36.828125 -2.140625 C 33.867188 0.285156 29.96875 1.5 25.125 1.5 Z M 16.140625 -18.921875 C 16.140625 -16.285156 16.992188 -13.894531 18.703125 -11.75 C 20.421875 -9.613281 23.488281 -8.546875 27.90625 -8.546875 C 31.539062 -8.546875 34.460938 -9.453125 36.671875 -11.265625 C 38.878906 -13.085938 40.5 -15.316406 41.53125 -17.953125 C 42.570312 -20.597656 43.09375 -23.203125 43.09375 -25.765625 C 41.664062 -26.484375 39.597656 -27.210938 36.890625 -27.953125 C 34.179688 -28.703125 31.398438 -29.078125 28.546875 -29.078125 C 25.128906 -29.078125 22.523438 -28.539062 20.734375 -27.46875 C 18.953125 -26.40625 17.738281 -25.085938 17.09375 -23.515625 C 16.457031 -21.953125 16.140625 -20.421875 16.140625 -18.921875 Z M 16.140625 -18.921875 "/></g></g><g style="fill:#ffffff;fill-opacity:1;"><g transform="translate(278.58298, 151.769099)"><path style="stroke:none" d="M 7.90625 0 L 7.90625 -63.078125 L 19.453125 -63.078125 L 19.453125 -57.734375 L 18.8125 -50.6875 L 19.03125 -50.6875 C 20.382812 -54.957031 22.644531 -58.335938 25.8125 -60.828125 C 28.988281 -63.328125 32.644531 -64.578125 36.78125 -64.578125 C 39.5625 -64.578125 41.914062 -64.257812 43.84375 -63.625 L 43.84375 -51.859375 C 41.914062 -52.566406 39.488281 -52.921875 36.5625 -52.921875 C 31.144531 -52.921875 26.9375 -50.992188 23.9375 -47.140625 C 20.945312 -43.296875 19.453125 -38.414062 19.453125 -32.5 L 19.453125 0 Z M 7.90625 0 "/></g></g><g style="fill:#ffffff;fill-opacity:1;"><g transform="translate(317.283993, 151.769099)"><path style="stroke:none" d="M 27.6875 1.5 C 21.207031 1.5 16.664062 -0.226562 14.0625 -3.6875 C 11.457031 -7.144531 10.15625 -11.90625 10.15625 -17.96875 L 10.15625 -52.8125 L 0.96875 -52.8125 L 0.96875 -63.078125 L 10.15625 -63.078125 L 10.15625 -77.40625 L 21.703125 -77.40625 L 21.703125 -63.078125 L 37 -63.078125 L 37 -52.8125 L 21.703125 -52.8125 L 21.703125 -20.421875 C 21.703125 -16.503906 22.378906 -13.597656 23.734375 -11.703125 C 25.085938 -9.816406 27.40625 -8.875 30.6875 -8.875 C 32.113281 -8.875 33.414062 -8.925781 34.59375 -9.03125 C 35.769531 -9.132812 37.035156 -9.296875 38.390625 -9.515625 L 38.390625 0.328125 C 36.890625 0.609375 35.191406 0.875 33.296875 1.125 C 31.410156 1.375 29.539062 1.5 27.6875 1.5 Z M 27.6875 1.5 "/></g></g><g clip-rule="nonzero" clip-path="url(#f6e973c7c8)"><g clip-rule="nonzero" clip-path="url(#28be679e6a)"><g clip-rule="nonzero" clip-path="url(#bd68b6b219)"><path style=" stroke:none;fill-rule:nonzero;fill:#000000;fill-opacity:1;" d="M 100.40625 87.339844 C 100.429688 87.628906 100.523438 88.324219 100.613281 89.367188 C 100.765625 90.804688 100.964844 92.929688 101.171875 95.671875 C 101.59375 101.171875 102.007812 109.226562 102.113281 119.277344 C 102.179688 124.300781 102.199219 129.871094 102.117188 135.8125 C 102.121094 138.851562 102.089844 141.90625 102.058594 145.070312 C 102.003906 146.621094 102.015625 148.300781 102.007812 149.964844 C 101.984375 150.667969 101.84375 151.34375 101.585938 152 C 101.328125 152.65625 100.96875 153.246094 100.507812 153.777344 C 100.046875 154.308594 99.511719 154.75 98.898438 155.09375 C 98.285156 155.441406 97.632812 155.675781 96.941406 155.796875 C 96.660156 155.851562 96.378906 155.882812 96.09375 155.886719 C 95.804688 155.910156 95.640625 155.894531 95.402344 155.902344 L 92.808594 155.9375 L 87.570312 156.03125 L 76.601562 156.125 L 53.289062 156.21875 C 45.1875 156.21875 37.347656 156.199219 29.84375 156.175781 L 18.867188 156.152344 L 13.527344 156.058594 C 11.617188 156.152344 9.738281 155.953125 7.890625 155.457031 C 6.769531 155.101562 5.84375 154.453125 5.121094 153.523438 C 4.46875 152.648438 4.0625 151.667969 3.910156 150.585938 C 3.777344 149.691406 3.722656 148.789062 3.742188 147.882812 C 3.757812 147.054688 3.75 146.269531 3.757812 145.457031 C 3.789062 142.265625 3.792969 139.160156 3.828125 136.191406 L 3.980469 119.691406 C 4.253906 100.160156 4.5625 88.300781 4.609375 87.804688 C 4.636719 88.351562 5.222656 101.144531 5.863281 121.207031 L 6.339844 137.878906 L 6.585938 147.167969 C 6.496094 148.570312 6.699219 149.933594 7.195312 151.25 L 7.300781 151.4375 C 7.335938 151.515625 7.375 151.589844 7.421875 151.660156 C 8.152344 152.433594 9.050781 152.808594 10.113281 152.789062 C 11.527344 152.90625 13.347656 152.8125 15.027344 152.796875 L 20.226562 152.742188 L 30.902344 152.640625 L 53.210938 152.492188 L 78.761719 152.546875 L 90.367188 152.617188 L 95.859375 152.625 C 95.949219 152.632812 96.039062 152.628906 96.128906 152.613281 L 96.535156 152.554688 C 97 152.449219 97.414062 152.25 97.785156 151.953125 C 98.152344 151.65625 98.441406 151.292969 98.640625 150.863281 C 98.757812 150.597656 98.847656 150.320312 98.898438 150.035156 L 98.933594 149.574219 L 98.960938 148.9375 L 99.078125 146.394531 L 99.261719 141.460938 L 99.746094 132.316406 L 100.34375 116.34375 C 100.640625 106.800781 100.636719 99.464844 100.59375 94.59375 L 100.472656 89.035156 C 100.40625 88.144531 100.40625 87.613281 100.40625 87.339844 Z M 100.40625 87.339844 "/></g></g></g><g clip-rule="nonzero" clip-path="url(#ce3f347bbc)"><g clip-rule="nonzero" clip-path="url(#5e06b72913)"><g clip-rule="nonzero" clip-path="url(#4dc8411bb4)"><path style=" stroke:none;fill-rule:nonzero;fill:#ffffff;fill-opacity:1;" d="M 96.242188 152.765625 C 96.152344 152.777344 96.0625 152.78125 95.972656 152.777344 L 90.480469 152.765625 L 78.875 152.695312 L 53.265625 152.539062 L 30.957031 152.6875 L 20.28125 152.789062 L 15.050781 152.785156 C 13.371094 152.800781 11.550781 152.890625 10.136719 152.777344 C 9.621094 152.785156 9.128906 152.6875 8.65625 152.484375 C 8.183594 152.28125 7.773438 151.988281 7.425781 151.613281 L 19.445312 141.058594 C 23.597656 137.367188 28.648438 132.9375 34.15625 127.773438 C 36.917969 125.199219 39.824219 122.425781 42.804688 119.535156 C 44.210938 118.117188 45.753906 116.871094 47.429688 115.796875 C 49.007812 114.761719 50.738281 114.3125 52.617188 114.453125 C 54.527344 114.734375 56.253906 115.460938 57.789062 116.632812 C 59.441406 117.832031 61.011719 119.132812 62.496094 120.539062 C 65.546875 123.308594 68.53125 125.964844 71.25 128.523438 C 76.75 133.636719 81.582031 138.265625 85.574219 142.140625 C 89.570312 146.019531 92.722656 149.171875 94.902344 151.332031 C 95.355469 151.902344 95.828125 152.324219 96.242188 152.765625 Z M 96.242188 152.765625 "/></g></g></g><g clip-rule="nonzero" clip-path="url(#e2ad20b5b7)"><g clip-rule="nonzero" clip-path="url(#e93f88dd12)"><g clip-rule="nonzero" clip-path="url(#831cd0cab5)"><path style=" stroke:none;fill-rule:nonzero;fill:#000000;fill-opacity:1;" d="M 98.226562 154.710938 C 98.15625 154.582031 97.417969 153.910156 96.214844 152.6875 C 95.835938 152.304688 95.382812 151.871094 94.890625 151.367188 C 92.714844 149.210938 89.558594 146.054688 85.566406 142.179688 C 81.570312 138.300781 76.734375 133.691406 71.230469 128.566406 C 68.476562 126.027344 65.546875 123.339844 62.476562 120.582031 C 60.992188 119.175781 59.421875 117.875 57.765625 116.675781 C 56.230469 115.515625 54.511719 114.796875 52.609375 114.519531 C 50.726562 114.378906 49 114.828125 47.421875 115.863281 C 45.742188 116.9375 44.203125 118.183594 42.796875 119.597656 C 39.828125 122.484375 36.910156 125.265625 34.148438 127.835938 C 28.628906 132.90625 23.515625 137.414062 19.445312 141.058594 L 7.425781 151.613281 L 6.152344 152.773438 L 7.335938 151.417969 C 9.222656 149.328125 13.207031 144.957031 18.808594 139.160156 C 22.753906 135.039062 27.535156 130.179688 32.695312 124.898438 L 40.851562 116.570312 C 41.261719 116.160156 41.703125 115.746094 42.148438 115.335938 L 42.53125 114.988281 C 43.589844 114.035156 44.734375 113.195312 45.960938 112.472656 C 48.121094 111.1875 50.453125 110.65625 52.957031 110.878906 C 55.757812 111.285156 58.253906 112.386719 60.445312 114.175781 C 60.742188 114.410156 61.054688 114.648438 61.332031 114.875 C 61.609375 115.101562 61.679688 115.167969 61.855469 115.300781 C 63.273438 116.492188 64.515625 117.722656 65.742188 118.871094 C 68.957031 121.945312 71.949219 124.886719 74.652344 127.632812 C 80.078125 133.199219 84.492188 138.089844 87.964844 142.117188 C 91.433594 146.144531 93.992188 149.324219 95.707031 151.523438 C 96.054688 151.957031 96.359375 152.347656 96.636719 152.714844 C 97.617188 153.9375 98.164062 154.625 98.226562 154.710938 Z M 98.226562 154.710938 "/></g></g></g><g clip-rule="nonzero" clip-path="url(#a665015687)"><g clip-rule="nonzero" clip-path="url(#8e5351c306)"><g clip-rule="nonzero" clip-path="url(#ecc5812a34)"><path style=" stroke:none;fill-rule:nonzero;fill:#000000;fill-opacity:1;" d="M 97.285156 84.988281 C 91.902344 91.15625 86.070312 96.871094 79.789062 102.121094 C 74.117188 106.914062 68.148438 111.304688 61.878906 115.285156 C 60.746094 115.988281 60.089844 116.394531 59.945312 116.460938 C 60.070312 116.390625 60.542969 115.78125 61.355469 114.859375 C 66.375 109.332031 71.730469 104.148438 77.414062 99.3125 C 89.398438 89.234375 97.285156 84.988281 97.285156 84.988281 Z M 97.285156 84.988281 "/></g></g></g><g clip-rule="nonzero" clip-path="url(#a200e7bad4)"><g clip-rule="nonzero" clip-path="url(#3fe72081ad)"><g clip-rule="nonzero" clip-path="url(#4c180b9bed)"><path style=" stroke:none;fill-rule:nonzero;fill:#000000;fill-opacity:1;" d="M 43.40625 116.101562 C 43.40625 116.101562 42.9375 115.859375 42.039062 115.335938 C 35.636719 111.757812 29.527344 107.738281 23.710938 103.273438 C 17.449219 98.523438 11.628906 93.289062 6.242188 87.570312 C 13.121094 91.371094 19.679688 95.660156 25.917969 100.441406 C 31.816406 104.863281 37.316406 109.730469 42.414062 115.050781 C 43.097656 115.738281 43.40625 116.101562 43.40625 116.101562 Z M 43.40625 116.101562 "/></g></g></g><g clip-rule="nonzero" clip-path="url(#e2e4908132)"><g clip-rule="nonzero" clip-path="url(#241b4f90da)"><g clip-rule="nonzero" clip-path="url(#071e6b11eb)"><path style=" stroke:none;fill-rule:nonzero;fill:#ffffff;fill-opacity:1;" d="M 100.40625 87.339844 C 100.40625 87.613281 100.425781 88.179688 100.4375 89.054688 L 100.558594 94.613281 C 100.625 99.53125 100.574219 106.761719 100.308594 116.363281 L 99.746094 132.316406 L 99.382812 141.546875 L 99.203125 146.480469 L 99.085938 149.023438 L 99.058594 149.660156 L 99.023438 150.121094 C 98.96875 150.40625 98.882812 150.679688 98.765625 150.945312 C 98.5625 151.375 98.277344 151.738281 97.90625 152.035156 C 97.539062 152.332031 97.121094 152.535156 96.660156 152.640625 C 96.441406 152.246094 96.074219 151.882812 95.730469 151.453125 C 94.058594 149.332031 91.523438 146.171875 87.984375 142.042969 C 84.445312 137.917969 80.039062 133.15625 74.671875 127.5625 C 71.964844 124.800781 68.984375 121.855469 65.761719 118.796875 C 64.535156 117.652344 63.296875 116.421875 61.878906 115.226562 C 68.144531 111.246094 74.113281 106.855469 79.785156 102.0625 C 86.066406 96.808594 91.898438 91.097656 97.28125 84.929688 C 97.28125 84.929688 89.398438 89.234375 77.414062 99.3125 C 71.730469 104.148438 66.375 109.332031 61.355469 114.859375 C 61.078125 114.632812 60.765625 114.394531 60.46875 114.164062 C 58.269531 112.375 55.765625 111.277344 52.957031 110.878906 C 51.714844 110.765625 50.488281 110.851562 49.273438 111.132812 C 48.058594 111.417969 46.921875 111.882812 45.855469 112.53125 C 44.628906 113.253906 43.488281 114.09375 42.425781 115.046875 C 37.324219 109.726562 31.820312 104.859375 25.917969 100.441406 C 19.675781 95.683594 13.113281 91.414062 6.234375 87.636719 C 11.621094 93.355469 17.441406 98.589844 23.699219 103.339844 C 29.53125 107.796875 35.652344 111.8125 42.066406 115.382812 C 41.625 115.792969 41.179688 116.203125 40.769531 116.613281 L 32.613281 124.945312 C 27.394531 130.257812 22.671875 135.082031 18.730469 139.203125 C 13.183594 144.96875 9.210938 149.335938 7.3125 151.433594 L 7.207031 151.246094 C 6.710938 149.925781 6.507812 148.566406 6.597656 147.160156 L 6.351562 137.871094 L 5.84375 121.140625 C 5.183594 101.074219 4.605469 88.292969 4.609375 87.804688 L 7.980469 84.683594 C 10.191406 82.6875 13.386719 79.800781 17.542969 76.367188 C 21.695312 72.933594 26.648438 68.710938 32.519531 64.363281 C 35.4375 62.21875 38.605469 59.910156 41.859375 57.6875 C 45.117188 55.464844 48.761719 53.664062 52.636719 53.414062 C 56.511719 53.160156 60.125 54.753906 63.394531 56.765625 C 66.660156 58.777344 69.742188 61.242188 72.644531 63.394531 C 78.445312 67.792969 83.441406 71.9375 87.542969 75.464844 C 91.648438 78.992188 94.824219 81.9375 96.992188 83.933594 C 98.808594 85.683594 100.019531 86.945312 100.40625 87.339844 Z M 100.40625 87.339844 "/></g></g></g><g clip-rule="nonzero" clip-path="url(#54b8913556)"><g clip-rule="nonzero" clip-path="url(#c0364d6a09)"><g clip-rule="nonzero" clip-path="url(#9a76f91a30)"><path style=" stroke:none;fill-rule:nonzero;fill:#000000;fill-opacity:1;" d="M 100.488281 87.429688 C 100.472656 87.394531 100.453125 87.359375 100.429688 87.328125 C 100.042969 86.929688 98.832031 85.671875 97.070312 83.996094 C 94.886719 81.964844 91.710938 79.019531 87.625 75.527344 C 83.539062 72.035156 78.535156 67.867188 72.726562 63.457031 C 69.820312 61.304688 66.746094 58.898438 63.472656 56.828125 C 60.203125 54.757812 56.441406 53.121094 52.660156 53.460938 C 48.882812 53.796875 45.179688 55.628906 41.875 57.738281 C 38.570312 59.851562 35.425781 62.226562 32.53125 64.414062 C 26.648438 68.710938 21.601562 72.789062 17.484375 76.261719 C 13.367188 79.734375 10.160156 82.628906 7.921875 84.578125 L 4.609375 87.804688 C 4.808594 87.558594 5.910156 86.21875 7.78125 84.078125 C 9.84375 81.722656 12.890625 78.355469 16.84375 74.441406 C 20.796875 70.527344 25.6875 66.035156 31.351562 61.449219 C 34.21875 59.152344 37.117188 56.746094 40.5 54.53125 C 44.074219 51.90625 48.0625 50.347656 52.46875 49.859375 C 55.117188 49.6875 57.671875 50.097656 60.136719 51.082031 C 62.328125 51.992188 64.386719 53.132812 66.316406 54.511719 C 69.957031 57.0625 73.054688 59.671875 75.976562 62.101562 C 80.859375 66.234375 85.515625 70.605469 89.949219 75.21875 C 93.535156 78.96875 96.128906 81.960938 97.839844 84.011719 C 99.34375 85.828125 100.277344 87.105469 100.488281 87.429688 Z M 100.488281 87.429688 "/></g></g></g><g clip-rule="nonzero" clip-path="url(#78c1fe5d90)"><g clip-rule="nonzero" clip-path="url(#e96079fa10)"><g clip-rule="nonzero" clip-path="url(#57129fcb43)"><path style=" stroke:none;fill-rule:nonzero;fill:#ff00a0;fill-opacity:1;" d="M 42.382812 115.023438 C 42.382812 115.023438 46.671875 111.136719 51.40625 110.851562 C 56.140625 110.5625 61.394531 114.960938 61.394531 114.960938 C 61.394531 114.960938 78.035156 97.070312 91.394531 88.695312 C 91.394531 88.695312 96.207031 71.796875 84.882812 66.535156 C 73.558594 61.277344 65.859375 64.875 65.859375 64.875 C 65.859375 64.875 59.566406 68.148438 57.4375 71.148438 C 57.4375 71.148438 44.761719 42.664062 26.449219 56.507812 C 8.140625 70.351562 23.835938 95.84375 23.835938 95.84375 L 26.753906 101.136719 C 26.753906 101.136719 40.847656 113.53125 42.382812 115.023438 Z M 42.382812 115.023438 "/></g></g></g><g clip-rule="nonzero" clip-path="url(#a15838529d)"><g clip-rule="nonzero" clip-path="url(#7df4c7a022)"><g clip-rule="nonzero" clip-path="url(#fcf630f910)"><path style=" stroke:none;fill-rule:nonzero;fill:#000000;fill-opacity:1;" d="M 29.035156 104.605469 C 29.035156 104.605469 28.449219 103.40625 27.449219 101.316406 C 26.445312 99.222656 24.890625 96.101562 23.292969 92.160156 C 21.347656 87.546875 20.175781 82.742188 19.777344 77.746094 C 19.457031 72.207031 20.515625 65.863281 24.710938 60.933594 C 26.660156 58.546875 29.082031 56.828125 31.972656 55.769531 C 34.65625 54.859375 37.386719 54.707031 40.15625 55.3125 C 42.683594 55.84375 45.023438 56.816406 47.179688 58.234375 C 49.070312 59.496094 50.722656 61.015625 52.140625 62.792969 C 54.242188 65.394531 55.933594 68.242188 57.21875 71.328125 C 57.667969 72.417969 57.964844 73.289062 58.152344 73.851562 L 58.429688 74.765625 L 58.335938 73.964844 C 58.269531 73.425781 58.101562 72.574219 57.890625 71.582031 C 57.164062 68.453125 55.980469 65.511719 54.335938 62.75 C 53.132812 60.65625 51.640625 58.785156 49.863281 57.148438 C 47.648438 55.136719 45.128906 53.644531 42.300781 52.671875 C 40.628906 52.078125 38.90625 51.738281 37.136719 51.648438 C 35.367188 51.554688 33.621094 51.71875 31.894531 52.132812 C 29.929688 52.652344 28.09375 53.464844 26.386719 54.570312 C 24.675781 55.671875 23.183594 57.015625 21.902344 58.59375 C 19.636719 61.296875 18.09375 64.363281 17.265625 67.792969 C 16.519531 70.914062 16.308594 74.070312 16.636719 77.261719 C 17.269531 82.589844 18.871094 87.609375 21.4375 92.320312 C 23.082031 95.445312 24.898438 98.464844 26.890625 101.378906 Z M 29.035156 104.605469 "/></g></g></g><g clip-rule="nonzero" clip-path="url(#d38fc0cc80)"><g clip-rule="nonzero" clip-path="url(#6175c7f5f1)"><g clip-rule="nonzero" clip-path="url(#0f9e87fc81)"><path style=" stroke:none;fill-rule:nonzero;fill:#000000;fill-opacity:1;" d="M 57.40625 71.089844 L 57.808594 70.667969 C 58.066406 70.390625 58.46875 69.988281 59.007812 69.503906 C 60.902344 67.804688 63.035156 66.496094 65.40625 65.574219 C 67.78125 64.65625 70.238281 64.1875 72.785156 64.167969 C 73.691406 64.183594 74.597656 64.265625 75.492188 64.40625 C 76.390625 64.546875 77.273438 64.753906 78.144531 65.015625 C 79.011719 65.28125 79.859375 65.605469 80.683594 65.992188 C 81.507812 66.375 82.300781 66.8125 83.0625 67.308594 C 83.828125 67.800781 84.550781 68.347656 85.238281 68.941406 C 85.925781 69.539062 86.566406 70.175781 87.164062 70.863281 C 87.761719 71.546875 88.308594 72.269531 88.804688 73.03125 C 89.300781 73.792969 89.742188 74.585938 90.128906 75.410156 C 91.355469 78.167969 91.9375 81.0625 91.875 84.082031 C 91.839844 86.140625 91.511719 88.152344 90.886719 90.113281 C 90.65625 90.804688 90.464844 91.335938 90.253906 91.726562 L 90.027344 92.277344 L 90.335938 91.875 C 90.648438 91.488281 90.929688 91.085938 91.1875 90.664062 C 92.28125 88.953125 93.050781 87.109375 93.5 85.128906 C 93.71875 84.179688 93.863281 83.21875 93.9375 82.246094 C 94.011719 81.273438 94.011719 80.300781 93.941406 79.328125 C 93.871094 78.355469 93.730469 77.394531 93.515625 76.445312 C 93.300781 75.492188 93.015625 74.5625 92.664062 73.65625 C 92.308594 72.746094 91.890625 71.867188 91.40625 71.023438 C 90.925781 70.175781 90.378906 69.371094 89.777344 68.605469 C 89.171875 67.839844 88.515625 67.121094 87.804688 66.457031 C 87.09375 65.789062 86.335938 65.175781 85.535156 64.621094 C 84.734375 64.066406 83.894531 63.578125 83.019531 63.148438 C 82.144531 62.71875 81.242188 62.355469 80.3125 62.058594 C 79.382812 61.765625 78.4375 61.539062 77.476562 61.386719 C 76.511719 61.234375 75.542969 61.152344 74.570312 61.140625 C 73.59375 61.132812 72.625 61.195312 71.660156 61.328125 C 70.691406 61.464844 69.742188 61.671875 68.808594 61.949219 C 67.875 62.222656 66.964844 62.570312 66.082031 62.980469 C 65.199219 63.394531 64.347656 63.867188 63.535156 64.40625 C 61.660156 65.648438 60.054688 67.171875 58.71875 68.980469 C 58.273438 69.636719 57.949219 70.148438 57.757812 70.515625 Z M 57.40625 71.089844 "/></g></g></g><g clip-rule="nonzero" clip-path="url(#25a68ec97a)"><g clip-rule="nonzero" clip-path="url(#1cde0fa1a4)"><g clip-rule="nonzero" clip-path="url(#7b52b864da)"><path style=" stroke:none;fill-rule:nonzero;fill:#ffffff;fill-opacity:1;" d="M 77.132812 68.882812 C 77.117188 70.972656 77.726562 72.859375 78.964844 74.546875 C 80.300781 76.148438 81.976562 77.195312 84 77.695312 C 84.054688 76.671875 83.925781 75.675781 83.605469 74.703125 C 83.289062 73.726562 82.808594 72.84375 82.164062 72.050781 C 80.808594 70.484375 79.132812 69.429688 77.132812 68.882812 Z M 77.132812 68.882812 "/></g></g></g><g clip-rule="nonzero" clip-path="url(#a005cde422)"><g clip-rule="nonzero" clip-path="url(#125e71e097)"><g clip-rule="nonzero" clip-path="url(#0f1c8a11cd)"><path style=" stroke:none;fill-rule:nonzero;fill:#ffffff;fill-opacity:1;" d="M 33.703125 60.089844 C 33.273438 60.226562 32.855469 60.386719 32.449219 60.570312 C 31.277344 61.101562 30.222656 61.808594 29.28125 62.683594 C 27.628906 64.246094 26.332031 66.0625 25.390625 68.132812 C 24.449219 70.207031 23.933594 72.378906 23.84375 74.652344 C 23.726562 79.050781 24.644531 83.21875 26.597656 87.160156 C 27.296875 88.695312 28.109375 90.167969 29.035156 91.578125 C 29.035156 91.578125 28.988281 89.945312 28.644531 87.035156 C 28.054688 83.003906 27.796875 78.953125 27.863281 74.878906 C 28.019531 71.121094 28.957031 67.5625 30.671875 64.210938 C 31.246094 63.144531 31.929688 62.148438 32.71875 61.226562 C 33.332031 60.464844 33.703125 60.089844 33.703125 60.089844 Z M 33.703125 60.089844 "/></g></g></g></g></svg>